/* XPM */
static char * 1_xpm[] = {
"16 16 3 1",
" 	c None",
".	c #ABABAB",
"+	c #B30000",
"                ",
"       ..       ",
"    ........    ",
"    .      .    ",
"    .      .    ",
"    .      .    ",
"    .      .    ",
"    .      .    ",
"    .      .    ",
"    .      .    ",
"    .      .    ",
"    .      .    ",
"    .      .    ",
"    .++++++.    ",
"     ......     ",
"                "};
