/* XPM */
static char * 8_xpm[] = {
"16 16 3 1",
" 	c None",
".	c #ABABAB",
"+	c #E6E6E6",
"                ",
"       ..       ",
"    ........    ",
"    .++++++.    ",
"    .++++++.    ",
"    .++++++.    ",
"    .++++++.    ",
"    .++++++.    ",
"    .++++++.    ",
"    .++++++.    ",
"    .++++++.    ",
"    .++++++.    ",
"    .++++++.    ",
"    .++++++.    ",
"     ......     ",
"                "};
